<svg width="126" height="461" viewBox="0 0 126 461" fill="none" xmlns="http://www.w3.org/2000/svg">
<path d="M63.0399 309.16C51.9466 309.16 42.9866 305.533 36.1599 298.28C29.7599 291.027 25.7065 281 23.9999 268.2L1.59985 74.92C-1.38681 52.7333 2.66655 34.8133 13.7599 21.16C24.8532 7.07998 41.2799 0.039978 63.0399 0.039978C85.2266 0.039978 101.653 7.07998 112.32 21.16C122.987 34.8133 126.827 52.7333 123.84 74.92L102.08 268.2C100.373 281 96.3199 291.027 89.9199 298.28C83.5199 305.533 74.5599 309.16 63.0399 309.16ZM63.0399 460.84C43.8399 460.84 28.4798 455.08 16.9598 443.56C5.86651 432.04 0.319824 416.893 0.319824 398.12C0.319824 379.773 5.86651 365.053 16.9598 353.96C28.4798 342.44 43.8399 336.68 63.0399 336.68C83.0933 336.68 98.4532 342.44 109.12 353.96C120.213 365.053 125.76 379.773 125.76 398.12C125.76 416.893 120.213 432.04 109.12 443.56C98.4532 455.08 83.0933 460.84 63.0399 460.84Z" fill="black"/>
</svg>
