<?xml version="1.0" encoding="utf-8"?>
<!-- Generator: Adobe Illustrator 26.3.1, SVG Export Plug-In . SVG Version: 6.00 Build 0)  -->
<svg version="1.1" id="Calque_1" xmlns="http://www.w3.org/2000/svg" xmlns:xlink="http://www.w3.org/1999/xlink" x="0px" y="0px"
	 viewBox="0 0 322 330" style="enable-background:new 0 0 322 330;" xml:space="preserve">
<style type="text/css">
	.st0{fill:#1D1D1B;}
</style>
<g>
	<g>
		<path d="M227.7,133.8"/>
	</g>
</g>
<path class="st0" d="M314.3,182.2c4.7-4.3,7-10.7,7-19.2c0-24.7-3.6-47.1-10.9-67.2c-6.8-20.1-17.1-37.1-30.7-51.2
	c-13.7-14.5-30.1-25.4-49.3-32.6c-19.2-7.7-40.5-11.5-64-11.5c-32,0-60.6,7-85.8,21.1C55.9,35.4,36.3,54.5,21.8,79.2
	C7.7,103.5,0.7,132,0.7,164.3c0,33.7,7.5,62.9,22.4,87.7c14.9,24.7,36.3,43.9,64,57.6c28.2,13.2,61.4,19.8,99.8,19.8
	c17.1,0,33.9-1.7,50.6-5.1c17.1-3.4,33.1-8.5,48-15.4c9.8-4.3,16.9-10.2,21.1-17.9c4.3-8.1,6.2-16.2,5.8-24.3
	c-0.4-8.5-3-16-7.7-22.4c-4.3-6.8-10.5-11.5-18.6-14.1c-8.1-3-17.7-2.3-28.8,1.9c-11.1,4.3-22.8,7.7-35.2,10.2
	c-11.9,2.1-22.6,3.2-32,3.2c-28.2,0-49.1-6.4-62.7-19.2c-8.9-8.9-14.8-21.7-17.7-38.4h182.2v0.1C302.1,188,309.6,186.2,314.3,182.2z
	 M114.3,135H109c1.2-8.9,3.3-16.8,6.3-23.7c5.1-11.9,12.4-20.9,21.8-26.9c9.8-6.4,21.3-9.6,34.6-9.6c12.4,0,22.6,2.6,30.7,7.7
	c8.5,5.1,14.9,12.6,19.2,22.4c3.5,8,5.6,18.1,6.2,30.1H114.3z"/>
</svg>
