<svg width="322" height="330" viewBox="0 0 322 330" fill="none" xmlns="http://www.w3.org/2000/svg">
<path d="M186.925 329.04C148.525 329.04 115.245 322.427 87.0851 309.2C59.3517 295.547 38.0184 276.347 23.0851 251.6C8.15172 226.853 0.685059 197.627 0.685059 163.92C0.685059 131.493 7.72505 103.12 21.8051 78.8C36.3117 54.0533 55.9384 34.8533 80.6851 21.2C105.858 7.11995 134.445 0.0799561 166.445 0.0799561C189.912 0.0799561 211.245 3.91994 230.445 11.5999C249.645 18.8533 266.072 29.7333 279.725 44.24C293.378 58.32 303.618 75.3866 310.445 95.44C317.698 115.493 321.325 137.893 321.325 162.64C321.325 171.173 318.978 177.573 314.285 181.84C309.592 185.68 302.125 187.6 291.885 187.6H96.0451V133.84H238.125L227.885 142.16C227.885 126.373 225.752 113.573 221.485 103.76C217.218 93.9466 210.818 86.48 202.285 81.36C194.178 76.24 183.938 73.68 171.565 73.68C158.338 73.68 146.818 76.8799 137.005 83.2799C127.618 89.2533 120.365 98.2133 115.245 110.16C110.125 122.107 107.565 137.04 107.565 154.96V160.72C107.565 191.013 114.178 212.773 127.405 226C141.058 238.8 161.965 245.2 190.125 245.2C199.512 245.2 210.178 244.133 222.125 242C234.498 239.44 246.232 236.027 257.325 231.76C268.418 227.493 278.018 226.853 286.125 229.84C294.232 232.4 300.418 237.093 304.685 243.92C309.378 250.32 311.938 257.787 312.365 266.32C312.792 274.427 310.872 282.533 306.605 290.64C302.338 298.32 295.298 304.293 285.485 308.56C270.552 315.387 254.552 320.507 237.485 323.92C220.845 327.333 203.992 329.04 186.925 329.04Z" fill="black"/>
</svg>
