<svg width="324" height="463" viewBox="0 0 324 463" fill="none" xmlns="http://www.w3.org/2000/svg">
<path d="M56.6 462.76C38.68 462.76 24.8134 457.853 15 448.04C5.1867 438.227 0.280029 423.933 0.280029 405.16V57.64C0.280029 38.8666 5.1867 24.5733 15 14.76C24.8134 4.94664 38.68 0.039978 56.6 0.039978C74.9467 0.039978 89.0267 4.94664 98.84 14.76C109.08 24.5733 114.2 38.8666 114.2 57.64V180.552C123.183 168.406 134.276 158.582 147.48 151.08C166.68 140.413 188.44 135.08 212.76 135.08C237.933 135.08 258.627 139.987 274.84 149.8C291.053 159.187 303.213 174.12 311.32 194.6C319.427 214.653 323.48 240.04 323.48 270.76V405.16C323.48 423.933 318.573 438.227 308.76 448.04C298.947 457.853 284.867 462.76 266.52 462.76C248.173 462.76 234.093 457.853 224.28 448.04C214.467 438.227 209.56 423.933 209.56 405.16V275.24C209.56 256.04 206.147 242.387 199.32 234.28C192.92 226.173 183.32 222.12 170.52 222.12C153.453 222.12 139.8 227.667 129.56 238.76C119.32 249.427 114.2 263.933 114.2 282.28V405.16C114.2 443.56 95 462.76 56.6 462.76Z" fill="black"/>
</svg>
