<?xml version="1.0" encoding="utf-8"?>
<!-- Generator: Adobe Illustrator 26.3.1, SVG Export Plug-In . SVG Version: 6.00 Build 0)  -->
<svg version="1.1" id="Calque_1" xmlns="http://www.w3.org/2000/svg" xmlns:xlink="http://www.w3.org/1999/xlink" x="0px" y="0px"
	 viewBox="0 0 190 465" style="enable-background:new 0 0 190 465;" xml:space="preserve">
<path d="M120.3,464.5c-41,0-71.3-10.9-90.9-32.6C10.2,409.7,0.6,376.4,0.6,332V58.1c0-18.8,4.9-33.1,14.7-42.9
	C25.1,5.4,39,0.5,56.9,0.5c18.3,0,32.4,4.9,42.2,14.7c10.2,9.8,15.4,24.1,15.4,42.9v270.1c0,15.8,3,27.3,9,34.6
	c6.4,7.3,14.5,10.9,24.3,10.9c3,0,6-0.2,9-0.6c3.4-0.9,7-1.5,10.9-1.9c7.3,0,12.6,2.8,16,8.3c3.8,5.5,5.8,16.9,5.8,33.9
	c0,14.9-3,26.2-9,33.9c-6,7.3-15.1,11.9-27.5,14.1c-3.4,0.4-8.3,1.1-14.7,1.9C131.8,464.1,125.8,464.5,120.3,464.5z"/>
</svg>
