<?xml version="1.0" encoding="utf-8"?>
<!-- Generator: Adobe Illustrator 26.3.1, SVG Export Plug-In . SVG Version: 6.00 Build 0)  -->
<svg version="1.1" id="Calque_1" xmlns="http://www.w3.org/2000/svg" xmlns:xlink="http://www.w3.org/1999/xlink" x="0px" y="0px"
	 viewBox="0 0 349 330" style="enable-background:new 0 0 349 330;" xml:space="preserve">
<style type="text/css">
	.st0{fill:#1D1D1B;}
</style>
<path class="st0" d="M326.5,76.9c-14.1-24.7-34.1-43.7-60.2-57c-26-13.2-56.5-19.8-91.5-19.8c-26.5,0-50.3,3.8-71.7,11.5
	c-21.3,7.3-39.7,18.1-55,32.6C32.7,58.3,21,75.6,12.9,96.1C4.8,116.1,0.7,139,0.7,164.6c0,33.7,7.3,62.9,21.8,87.7
	C37,277,57.3,296,83.3,309.2c26,13.2,56.5,19.8,91.5,19.8c26,0,49.7-3.6,71-10.9c21.8-7.7,40.1-18.6,55-32.6
	c15.4-14.5,27.1-32,35.2-52.5c8.1-20.5,12.2-43.3,12.2-68.5C348.3,130.4,341,101.2,326.5,76.9z M226,211.1
	c-4.7,11.5-11.5,20.3-20.5,26.2c-9,5.5-19.2,8.3-30.7,8.3c-17.5,0-31.8-6.4-42.9-19.2s-16.6-33.3-16.6-61.4
	c0-19.2,2.6-34.6,7.7-46.1c5.1-11.9,12.2-20.7,21.1-26.2c9-5.5,19.2-8.3,30.7-8.3c17.1,0,31.1,6.4,42.2,19.2
	c11.1,12.4,16.6,32.9,16.6,61.4C233.7,183.8,231.1,199.1,226,211.1z"/>
</svg>
